<svg width="128" height="128" viewBox="0 0 128 128" fill="none" xmlns="http://www.w3.org/2000/svg">
  <defs>
    <linearGradient id="g1" x1="16" y1="16" x2="112" y2="112" gradientUnits="userSpaceOnUse">
      <stop stop-color="#818CF8"/>
      <stop offset="1" stop-color="#38BDF8"/>
    </linearGradient>
  </defs>
  <rect x="8" y="8" width="112" height="112" rx="28" fill="#0F172A"/>
  <rect x="14" y="14" width="100" height="100" rx="24" stroke="url(#g1)" stroke-width="4"/>
  <path d="M36 44C36 38.4772 40.4772 34 46 34H82C87.5229 34 92 38.4772 92 44V82C92 87.5229 87.5229 92 82 92H46C40.4772 92 36 87.5229 36 82V44Z" fill="#1E293B"/>
  <path d="M51 54H76C83.1797 54 89 59.8203 89 67C89 74.1797 83.1797 80 76 80H51V54Z" fill="url(#g1)"/>
  <path d="M51 60V74" stroke="#E2E8F0" stroke-width="4" stroke-linecap="round"/>
  <path d="M62 68H74" stroke="#E2E8F0" stroke-width="4" stroke-linecap="round"/>
</svg>
